<svg width="27" height="27" viewBox="0 0 27 27" fill="none" xmlns="http://www.w3.org/2000/svg">
<path opacity="0.34" d="M13.5335 16.7333C15.3008 16.7333 16.7335 15.3006 16.7335 13.5333C16.7335 11.766 15.3008 10.3333 13.5335 10.3333C11.7662 10.3333 10.3335 11.766 10.3335 13.5333C10.3335 15.3006 11.7662 16.7333 13.5335 16.7333Z" stroke="#DFEBE9" stroke-width="1.5" stroke-miterlimit="10" stroke-linecap="round" stroke-linejoin="round"/>
<path d="M2.8667 14.472V12.5946C2.8667 11.4853 3.77337 10.568 4.89337 10.568C6.82403 10.568 7.61337 9.20264 6.6427 7.52798C6.08803 6.56798 6.4187 5.31998 7.38937 4.76531L9.2347 3.70931C10.0774 3.20798 11.1654 3.50664 11.6667 4.34931L11.784 4.55198C12.744 6.22664 14.3227 6.22664 15.2934 4.55198L15.4107 4.34931C15.912 3.50664 17 3.20798 17.8427 3.70931L19.688 4.76531C20.6587 5.31998 20.9894 6.56798 20.4347 7.52798C19.464 9.20264 20.2534 10.568 22.184 10.568C23.2934 10.568 24.2107 11.4746 24.2107 12.5946V14.472C24.2107 15.5813 23.304 16.4986 22.184 16.4986C20.2534 16.4986 19.464 17.864 20.4347 19.5386C20.9894 20.5093 20.6587 21.7466 19.688 22.3013L17.8427 23.3573C17 23.8586 15.912 23.56 15.4107 22.7173L15.2934 22.5146C14.3334 20.84 12.7547 20.84 11.784 22.5146L11.6667 22.7173C11.1654 23.56 10.0774 23.8586 9.2347 23.3573L7.38937 22.3013C6.4187 21.7466 6.08803 20.4986 6.6427 19.5386C7.61337 17.864 6.82403 16.4986 4.89337 16.4986C3.77337 16.4986 2.8667 15.5813 2.8667 14.472Z" stroke="#DFEBE9" stroke-width="1.5" stroke-miterlimit="10" stroke-linecap="round" stroke-linejoin="round"/>
</svg>
