<svg width="50" height="50" viewBox="0 0 50 50" fill="none" xmlns="http://www.w3.org/2000/svg">
<g clip-path="url(#clip0_7_1405)">
<path d="M46.7332 26.4052C46.0197 26.1986 45.3021 26.1791 44.6273 26.3143C40.1777 27.2059 35.7653 26.6265 33.5223 26.1996C32.668 26.0371 32.0248 25.3551 31.8357 24.4893C31.8319 24.4715 31.8279 24.4537 31.8239 24.436C31.6286 23.5727 31.9102 22.6711 32.6102 22.1471C34.3592 20.8378 37.8933 18.5208 42.5714 17.1265C43.6436 16.807 44.6717 16.1731 45.348 14.9364C46.1321 13.5024 46.1337 11.7081 45.2978 10.3048C43.8559 7.88432 40.7234 7.37165 38.6256 9.07985C38.1033 9.50523 37.6946 10.0232 37.4152 10.5963C35.4318 14.6654 32.1773 17.8402 30.4251 19.3627C29.7657 19.9355 28.8472 20.0181 28.0689 19.6308C28.051 19.6219 28.0331 19.613 28.0151 19.6044C27.232 19.2231 26.7251 18.433 26.7576 17.5481C26.8442 15.1876 27.2649 10.5853 29.1204 6.46814C29.4038 5.83938 29.5368 5.12857 29.5035 4.38422C29.4022 2.12445 27.7819 0.317189 25.5829 0.0370233C22.8357 -0.312912 20.4973 1.86432 20.4973 4.59895C20.4973 5.19584 20.6062 5.7671 20.8115 6.28929C22.7863 11.31 23.2117 15.4036 23.2796 17.5351C23.3077 18.419 22.8057 19.2125 22.0219 19.5892C21.9999 19.5998 21.978 19.6104 21.9562 19.6212C21.1687 20.01 20.2406 19.9217 19.5806 19.3358C17.8015 17.7562 14.4785 14.4807 12.5671 10.5575C12.2668 9.94121 11.8059 9.3959 11.2193 8.95959C9.4356 7.63262 7.04863 7.78493 5.4589 9.34791C3.45317 11.32 3.65626 14.5622 5.75912 16.2739C6.28156 16.6992 6.86622 16.9947 7.47672 17.1412C11.7779 18.1734 15.5546 20.7301 17.405 22.1456C18.0968 22.6748 18.3791 23.5688 18.1836 24.4284C18.1785 24.4509 18.1735 24.4735 18.1686 24.4961C17.9809 25.3599 17.3395 26.0403 16.4879 26.2057C14.2279 26.6447 9.76967 27.2464 5.37869 26.3178C4.71301 26.177 4.00284 26.2017 3.29742 26.402C1.15778 27.0096 -0.204829 29.0318 0.0252425 31.2867C0.311237 34.0888 2.90587 35.9226 5.51253 35.3152C6.08264 35.1824 6.60713 34.9513 7.05713 34.6263C11.2753 31.5795 15.2102 30.2221 17.273 29.6688C18.1042 29.4458 18.9643 29.7814 19.4947 30.4718C19.5101 30.4918 19.5255 30.5118 19.5412 30.5316C20.0856 31.2249 20.2066 32.1641 19.7981 32.9487C18.7012 35.0562 16.3376 39.0611 12.9684 41.881C12.4465 42.3178 12.0276 42.8982 11.7414 43.5798C10.8712 45.652 11.5505 47.9942 13.3997 49.227C15.729 50.7799 18.7773 49.8557 19.9432 47.3837C20.2332 46.7691 20.3893 46.1216 20.3893 45.4814C20.3893 41.1352 22.0236 36.6994 22.9698 34.4954C23.3137 33.6943 24.0939 33.1964 24.9506 33.2071C25.0003 33.2077 25.0501 33.208 25.1 33.2077C25.9437 33.2034 26.7059 33.7107 27.0441 34.4998C27.9553 36.626 29.4957 40.8734 29.6206 45.527C29.6394 46.2262 29.8189 46.9332 30.1726 47.5951C31.2431 49.5983 33.4983 50.4903 35.6065 49.7314C38.1849 48.8031 39.3372 45.8348 38.1841 43.3913C37.9303 42.8536 37.5925 42.3836 37.1825 42.0077C33.2774 38.4272 31.1325 34.8537 30.1635 32.9437C29.7702 32.1683 29.9006 31.2417 30.4394 30.5635C30.4632 30.5336 30.4867 30.5034 30.5101 30.4731C31.0412 29.782 31.9028 29.446 32.7347 29.6705C34.7912 30.2255 38.7109 31.5834 42.95 34.6232C43.401 34.9467 43.9245 35.1791 44.4946 35.3119C46.9624 35.8865 49.419 34.2732 49.9162 31.7222C50.3669 29.4089 48.9558 27.0493 46.733 26.4054L46.7332 26.4052Z" fill="#59A588"/>
<path d="M47.5347 28.1977C47.3143 28.0345 46.9947 27.8436 46.7841 27.7467C46.7841 27.7467 45.8958 27.2473 44.3717 27.617C44.3717 27.617 42.8271 27.9068 41.6729 27.9601C41.6729 27.9601 41.7877 28.506 43.1426 28.549C44.3913 28.5886 45.348 28.0537 46.4963 28.8663C46.5364 28.8965 46.5742 28.9258 46.6159 28.9567C46.6315 28.9683 46.6464 28.9811 46.6617 28.9931C46.7002 29.0243 46.7384 29.0533 46.7774 29.0877C47.4193 29.645 47.83 30.4765 48.0777 30.2459C48.4577 29.8923 48.2704 28.7423 47.5346 28.1977H47.5347Z" fill="#DFEBE9"/>
<path d="M44.5379 11.5679C44.3831 11.1778 44.2402 10.8962 44.04 10.6433C44.04 10.6433 43.3522 9.44692 41.6422 9.33784C39.871 9.22484 38.9248 10.5115 38.9248 10.5115C38.9248 10.5115 39.9067 10.0953 40.9601 10.1221C42.1666 10.1528 43.1344 11.1408 43.2803 12.3637C43.3778 13.1805 43.4164 13.8884 43.9016 13.8884C44.7736 13.8884 44.9148 12.5166 44.5379 11.5679Z" fill="#DFEBE9"/>
<path d="M27.5261 2.4213C27.3982 2.28301 26.3925 0.988845 24.4209 1.29789C24.2402 1.32618 24.0624 1.37709 23.8912 1.44252C23.6793 1.52355 23.3961 1.65275 23.1372 1.83902C23.1372 1.83902 25.6624 1.52556 26.4234 3.31271C26.4234 3.31271 27.0653 5.11897 27.8448 4.8807C27.8696 4.87945 27.8945 4.87361 27.9196 4.85775C28.3953 4.55839 28.2042 3.15472 27.526 2.42122L27.5261 2.4213Z" fill="#DFEBE9"/>
<path d="M9.01933 10.7925C8.21907 10.3605 8.80455 9.13635 9.63351 9.50765C9.79098 9.57817 10.2457 9.7773 10.3969 9.88821C11.917 11.0034 10.9764 11.0616 13.7668 14.8312C13.7668 14.8312 12.4442 14.4198 10.3922 11.9277C10.0161 11.4711 9.56606 11.0874 9.04942 10.8087L9.01933 10.7925Z" fill="#DFEBE9"/>
<path d="M37.3844 45.1777C37.3749 44.911 37.4739 43.835 35.9262 42.5277C35.9262 42.5277 34.7973 41.4541 34.1309 40.7205C34.1309 40.7205 33.7382 41.059 34.5082 42.1303C35.218 43.1178 36.1805 43.5397 36.258 44.9072C36.2593 44.956 36.26 45.0026 36.2618 45.0531C36.2625 45.0722 36.2618 45.0914 36.2619 45.1105C36.2616 45.1585 36.2628 45.2051 36.2603 45.2554C36.2273 46.0808 35.8543 46.89 36.1718 46.9448C36.6586 47.0287 37.4163 46.0681 37.3843 45.1777L37.3844 45.1777Z" fill="#DFEBE9"/>
</g>
<defs>
<clipPath id="clip0_7_1405">
<rect width="50" height="50" fill="white"/>
</clipPath>
</defs>
</svg>
